<?xml version="1.0" encoding="UTF-8" standalone="no"?>
<svg
   version="1.1"
   id="Layer_1"
   x="0px"
   y="0px"
   viewBox="0 0 128 128"
   xml:space="preserve"
   sodipodi:docname="question-mark-icon.svg"
   width="128"
   height="128"
   inkscape:version="1.4 (e7c3feb100, 2024-10-09)"
   xmlns:inkscape="http://www.inkscape.org/namespaces/inkscape"
   xmlns:sodipodi="http://sodipodi.sourceforge.net/DTD/sodipodi-0.dtd"
   xmlns="http://www.w3.org/2000/svg"
   xmlns:svg="http://www.w3.org/2000/svg"><defs
     id="defs1" /><sodipodi:namedview
     id="namedview1"
     pagecolor="#505050"
     bordercolor="#eeeeee"
     borderopacity="1"
     inkscape:showpageshadow="0"
     inkscape:pageopacity="0"
     inkscape:pagecheckerboard="0"
     inkscape:deskcolor="#505050"
     inkscape:zoom="5.2001954"
     inkscape:cx="19.710798"
     inkscape:cy="41.729201"
     inkscape:window-width="2560"
     inkscape:window-height="1531"
     inkscape:window-x="0"
     inkscape:window-y="0"
     inkscape:window-maximized="1"
     inkscape:current-layer="g1" /><g
     id="g1"
     transform="matrix(0.84821267,0,0,0.84821267,25.380877,11.881572)"><path
       d="M 58.68,84.96 H 27.37 v -3.12 c 0,-5.32 0.59,-9.65 1.8,-12.97 1.21,-3.35 3.01,-6.36 5.4,-9.11 2.39,-2.76 7.76,-7.6 16.12,-14.52 4.45,-3.63 6.67,-6.95 6.67,-9.96 0,-3.04 -0.9,-5.37 -2.67,-7.06 -1.8,-1.66 -4.5,-2.5 -8.13,-2.5 -3.91,0 -7.12,1.29 -9.68,3.88 -2.56,2.56 -4.19,7.09 -4.9,13.5 L 0,39.13 C 1.1,27.37 5.37,17.92 12.8,10.74 20.25,3.57 31.68,0 47.06,0 c 11.98,0 21.63,2.5 29,7.48 9.99,6.78 15,15.78 15,27.04 0,4.67 -1.29,9.2 -3.88,13.53 -2.56,4.33 -7.85,9.65 -15.81,15.89 -5.54,4.42 -9.06,7.93 -10.52,10.61 -1.43,2.64 -2.17,6.13 -2.17,10.41 z m -32.4,8.33 h 33.56 v 29.6 H 26.28 Z"
       id="path1"
       style="fill:#dadada;fill-opacity:0.43798345" /></g></svg>
